<?xml version="1.0" standalone="no"?>
<!DOCTYPE svg PUBLIC "-//W3C//DTD SVG 20010904//EN"
 "http://www.w3.org/TR/2001/REC-SVG-20010904/DTD/svg10.dtd">
<svg version="1.0" xmlns="http://www.w3.org/2000/svg"
 width="400.000000pt" height="400.000000pt" viewBox="0 0 400.000000 400.000000"
 preserveAspectRatio="xMidYMid meet">

<g transform="translate(0.000000,400.000000) scale(0.100000,-0.100000)"
fill="#000000" stroke="none">
<path d="M271 3959 c-37 -28 -56 -37 -61 -29 -5 9 -9 9 -14 1 -4 -6 -2 -11 5
-11 7 0 -3 -17 -22 -37 -59 -62 -128 -159 -154 -215 l-25 -53 0 -1807 0 -1808
2000 0 2000 0 -2 1813 -3 1812 -24 50 c-44 93 -126 190 -234 278 l-58 47
-1677 0 -1677 0 -54 -41z m659 -1113 c139 -36 211 -66 310 -131 159 -104 276
-268 333 -470 125 -439 -113 -900 -548 -1063 -98 -37 -173 -45 -427 -50 l-258
-4 0 872 0 872 263 -5 c196 -4 278 -9 327 -21z m805 -18 c39 -90 79 -177 126
-276 27 -57 49 -106 49 -109 0 -3 16 -39 36 -80 l37 -74 28 58 c16 32 54 112
85 178 31 66 81 171 110 233 l53 112 166 0 165 0 0 -54 c0 -52 -3 -58 -51
-113 -208 -238 -302 -518 -270 -805 11 -96 32 -180 61 -243 5 -11 19 -42 31
-70 33 -77 121 -206 188 -277 37 -39 43 -58 39 -124 l-3 -49 -182 -3 -183 -2
0 385 c0 221 -4 385 -9 385 -8 0 -46 -73 -101 -195 -13 -27 -36 -79 -53 -115
-16 -36 -38 -85 -49 -110 l-20 -45 -49 104 c-27 57 -59 124 -70 150 -12 25
-40 84 -63 131 l-41 85 -3 -387 -2 -388 -185 0 -184 0 -7 45 c-7 52 2 111 19
122 25 16 101 118 164 218 66 105 108 228 129 383 16 114 16 129 1 238 -20
141 -60 254 -133 378 -51 87 -67 109 -135 184 -34 37 -49 71 -49 112 0 61 -3
60 174 60 l162 0 19 -42z m1680 13 c85 -22 192 -67 223 -95 22 -19 23 -26 21
-166 0 -81 -4 -151 -7 -156 -4 -5 -29 -24 -55 -43 -51 -35 -55 -34 -97 9 -14
15 -70 47 -110 63 -66 28 -218 34 -300 13 -158 -41 -274 -157 -328 -330 -70
-221 42 -466 263 -579 58 -30 65 -31 195 -31 151 -1 187 8 273 70 27 20 52 34
56 32 5 -2 31 -24 59 -49 l51 -47 -2 -140 c-1 -86 -6 -145 -13 -152 -15 -15
-143 -67 -218 -87 -85 -24 -297 -24 -387 0 -271 71 -455 218 -582 465 -67 128
-91 236 -91 402 1 204 44 342 160 507 117 166 348 303 558 333 85 12 248 3
331 -19z"/>
<path d="M710 2000 l0 -480 48 0 c248 0 462 222 462 480 0 135 -39 235 -128
331 -87 94 -208 149 -329 149 l-53 0 0 -480z"/>
<path d="M20 3975 c-8 -9 -8 -15 -2 -15 12 0 26 19 19 26 -2 2 -10 -2 -17 -11z"/>
<path d="M56 3763 c-6 -14 -5 -15 5 -6 7 7 10 15 7 18 -3 3 -9 -2 -12 -12z"/>
<path d="M5 3679 c-4 -6 -5 -12 -2 -15 2 -3 7 2 10 11 7 17 1 20 -8 4z"/>
</g>
</svg>
